<svg xmlns:dc="http://purl.org/dc/elements/1.1/" xmlns:cc="http://creativecommons.org/ns#" xmlns:rdf="http://www.w3.org/1999/02/22-rdf-syntax-ns#" xmlns:svg="http://www.w3.org/2000/svg" xmlns="http://www.w3.org/2000/svg" xmlns:sodipodi="http://sodipodi.sourceforge.net/DTD/sodipodi-0.dtd" xmlns:inkscape="http://www.inkscape.org/namespaces/inkscape" version="1.1" x="0px" y="0px" viewBox="0 0 100 125"><g transform="translate(0,-952.36218)"><path style="font-size:medium;font-style:normal;font-variant:normal;font-weight:normal;font-stretch:normal;text-indent:0;text-align:start;text-decoration:none;line-height:normal;letter-spacing:normal;word-spacing:normal;text-transform:none;direction:ltr;block-progression:tb;writing-mode:lr-tb;text-anchor:start;baseline-shift:baseline;opacity:1;color:#000000;fill:#000000;fill-opacity:1;stroke:none;stroke-width:6;marker:none;visibility:visible;display:inline;overflow:visible;enable-background:accumulate;font-family:Sans;-inkscape-font-specification:Sans" d="M 7.6875 13 A 3.0003 3.0003 0 0 0 5 16 L 5 72 A 3.0003 3.0003 0 0 0 8 75 C 18.400357 75 26.260454 75.5413 32.5 77.1875 C 38.739546 78.8337 43.391468 81.4606 47.84375 86.0625 A 3.0003 3.0003 0 0 0 52.15625 86.0625 C 56.608532 81.4606 61.260454 78.8337 67.5 77.1875 C 73.739546 75.5413 81.599643 75 92 75 A 3.0003 3.0003 0 0 0 95 72 L 95 16 A 3.0003 3.0003 0 0 0 92 13 C 81.400357 13 73.082864 13.49807 65.96875 15.375 C 59.816615 16.99813 54.617945 19.79957 50 23.9375 C 45.382055 19.79957 40.183385 16.99813 34.03125 15.375 C 26.917136 13.49807 18.599643 13 8 13 A 3.0003 3.0003 0 0 0 7.6875 13 z M 11 19.09375 C 19.791521 19.20411 26.93799 19.72006 32.5 21.1875 C 38.349574 22.730803 42.797507 25.163515 47 29.25 L 47 77.53125 C 43.145838 74.699758 38.891942 72.657382 34.03125 71.375 C 27.661061 69.6943 20.076858 69.19705 11 69.09375 L 11 19.09375 z M 89 19.09375 L 89 69.09375 C 79.923142 69.19705 72.338939 69.6943 65.96875 71.375 C 61.108058 72.657382 56.854162 74.699758 53 77.53125 L 53 29.25 C 57.202493 25.163515 61.650426 22.730803 67.5 21.1875 C 73.06201 19.72006 80.208479 19.20411 89 19.09375 z M 17.75 25 A 3.0014645 3.0014645 0 1 0 17.9375 31 C 24.890302 31.14703 30.422796 32.07145 34.9375 33.78125 A 3.0003 3.0003 0 1 0 37.0625 28.1875 C 31.720906 26.16454 25.49179 25.15711 18.0625 25 A 3.0003 3.0003 0 0 0 17.75 25 z M 81.9375 25 C 74.50821 25.15711 68.279094 26.16454 62.9375 28.1875 A 3.0003 3.0003 0 1 0 65.0625 33.78125 C 69.577204 32.07145 75.109698 31.14703 82.0625 31 A 3.000651 3.000651 0 1 0 81.9375 25 z M 17.78125 36 A 3.0010171 3.0010171 0 1 0 17.9375 42 C 26.792124 42.22485 33.348513 43.89821 38.59375 46.65625 A 3.0055288 3.0055288 0 1 0 41.40625 41.34375 C 35.208295 38.08475 27.602784 36.24227 18.0625 36 A 3.0003 3.0003 0 0 0 17.78125 36 z M 81.9375 36 C 72.397216 36.24227 64.791705 38.08475 58.59375 41.34375 A 3.0055288 3.0055288 0 1 0 61.40625 46.65625 C 66.651487 43.89821 73.207876 42.22485 82.0625 42 A 3.000651 3.000651 0 1 0 81.9375 36 z M 17.78125 47 A 3.0010171 3.0010171 0 1 0 17.9375 53 C 26.821879 53.2119 33.341293 54.90955 38.625 57.65625 A 3.0048972 3.0048972 0 0 0 41.375 52.3125 C 35.187551 49.0959 27.652301 47.22871 18.0625 47 A 3.0003 3.0003 0 0 0 17.78125 47 z M 81.9375 47 C 72.347699 47.22871 64.812449 49.0959 58.625 52.3125 A 3.0048972 3.0048972 0 0 0 61.375 57.65625 C 66.658707 54.90955 73.178121 53.2119 82.0625 53 A 3.000651 3.000651 0 1 0 81.9375 47 z M 17.78125 58 A 3.0010171 3.0010171 0 1 0 17.9375 64 C 26.774947 64.2242 33.378796 65.91715 38.625 68.65625 A 3.0048972 3.0048972 0 0 0 41.375 63.3125 C 35.191056 60.0837 27.597259 58.2418 18.0625 58 A 3.0003 3.0003 0 0 0 17.78125 58 z M 81.9375 58 C 72.402741 58.2418 64.808944 60.0837 58.625 63.3125 A 3.0048972 3.0048972 0 0 0 61.375 68.65625 C 66.621204 65.91715 73.225053 64.2242 82.0625 64 A 3.000651 3.000651 0 1 0 81.9375 58 z " transform="translate(0,952.36218)"/></g><text x="0" y="115" fill="#000000" font-size="5px" font-weight="bold" font-family="'Helvetica Neue', Helvetica, Arial-Unicode, Arial, Sans-serif">Created by beth bolton</text><text x="0" y="120" fill="#000000" font-size="5px" font-weight="bold" font-family="'Helvetica Neue', Helvetica, Arial-Unicode, Arial, Sans-serif">from the Noun Project</text></svg>